<svg width="44" height="44" viewBox="0 0 44 44" fill="none" xmlns="http://www.w3.org/2000/svg">
<path d="M17.4986 17.5C16.9946 17.5 16.5986 17.104 16.5986 16.6C16.5986 16.096 16.9946 15.7 17.4986 15.7C18.0026 15.7 18.3986 16.096 18.3986 16.6C18.3986 17.104 18.0026 17.5 17.4986 17.5Z" fill="black"/>
<path d="M17.4986 21.1003C16.9946 21.1003 16.5986 20.7043 16.5986 20.2003C16.5986 19.6963 16.9946 19.3003 17.4986 19.3003C18.0026 19.3003 18.3986 19.6963 18.3986 20.2003C18.3986 20.7043 18.0026 21.1003 17.4986 21.1003Z" fill="black"/>
<path d="M17.4986 24.6999C16.9946 24.6999 16.5986 24.3039 16.5986 23.7999C16.5986 23.2959 16.9946 22.8999 17.4986 22.8999C18.0026 22.8999 18.3986 23.2959 18.3986 23.7999C18.3986 24.3039 18.0026 24.6999 17.4986 24.6999Z" fill="black"/>
<path d="M17.4986 28.3C16.9946 28.3 16.5986 27.904 16.5986 27.4C16.5986 26.896 16.9946 26.5 17.4986 26.5C18.0026 26.5 18.3986 26.896 18.3986 27.4C18.3986 27.904 18.0026 28.3 17.4986 28.3Z" fill="black"/>
<path d="M38.2 14.8V29.2H5.8V14.8H38.2ZM38.2 13H5.8C4.81 13 4 13.81 4 14.8V29.2C4 30.19 4.81 31 5.8 31H38.2C39.19 31 40 30.19 40 29.2V14.8C40 13.81 39.19 13 38.2 13Z" fill="black"/>
<path d="M27.3258 20.0739C27.3258 20.3619 27.2718 20.6139 27.1638 20.8659C27.0558 21.1179 26.9118 21.3339 26.7318 21.5139C26.5518 21.6939 26.3358 21.8379 26.0838 21.9459C25.8318 22.0539 25.5618 22.1079 25.2918 22.1079C25.0218 22.1079 24.7518 22.0539 24.4998 21.9459C24.2478 21.8379 24.0318 21.6939 23.8518 21.5139C23.6718 21.3339 23.5278 21.1179 23.4198 20.8659C23.3118 20.6139 23.2578 20.3619 23.2578 20.0739C23.2578 19.7859 23.3118 19.5159 23.4198 19.2639C23.5278 19.0119 23.6718 18.7959 23.8518 18.6159C24.0318 18.4359 24.2478 18.2919 24.4998 18.1839C24.7518 18.0759 25.0218 18.0219 25.2918 18.0219C25.5618 18.0219 25.8318 18.0759 26.0838 18.1839C26.3358 18.2919 26.5518 18.4359 26.7318 18.6159C26.9118 18.7959 27.0558 19.0119 27.1638 19.2639C27.2718 19.5159 27.3258 19.7859 27.3258 20.0739ZM26.1198 20.0739C26.1198 19.8399 26.0298 19.6419 25.8678 19.4799C25.7058 19.3179 25.5078 19.2279 25.2738 19.2279C25.0398 19.2279 24.8418 19.3179 24.6798 19.4799C24.5178 19.6419 24.4278 19.8399 24.4278 20.0739C24.4278 20.2899 24.5178 20.5059 24.6798 20.6679C24.8418 20.8299 25.0398 20.9019 25.2738 20.9019C25.5078 20.9019 25.7058 20.8299 25.8678 20.6679C26.0298 20.5239 26.1198 20.3079 26.1198 20.0739ZM25.8858 26.0679L25.3998 25.8339C25.2558 25.7619 25.2018 25.5999 25.2918 25.4559L29.4858 18.0399C29.5578 17.9139 29.7018 17.8599 29.8458 17.9319L30.3678 18.1839C30.5118 18.2559 30.5658 18.4179 30.4758 18.5619L26.2458 25.9599C26.1558 26.0859 26.0118 26.1399 25.8858 26.0679ZM32.5098 23.9079C32.5098 24.1959 32.4558 24.4479 32.3478 24.6999C32.2398 24.9519 32.0958 25.1679 31.9158 25.3479C31.7358 25.5279 31.5198 25.6719 31.2678 25.7799C31.0158 25.8879 30.7458 25.9419 30.4758 25.9419C30.2058 25.9419 29.9358 25.8879 29.6838 25.7799C29.4318 25.6719 29.2158 25.5279 29.0358 25.3479C28.8558 25.1679 28.7118 24.9519 28.6038 24.6999C28.4958 24.4479 28.4418 24.1959 28.4418 23.9079C28.4418 23.6199 28.4958 23.3679 28.6038 23.1159C28.7118 22.8639 28.8558 22.6479 29.0358 22.4679C29.2158 22.2879 29.4318 22.1439 29.6838 22.0359C29.9358 21.9279 30.2058 21.8739 30.4758 21.8739C30.7458 21.8739 31.0158 21.9279 31.2678 22.0359C31.5198 22.1439 31.7358 22.2879 31.9158 22.4679C32.0958 22.6479 32.2398 22.8639 32.3478 23.1159C32.4558 23.3679 32.5098 23.6199 32.5098 23.9079ZM31.3038 23.9079C31.3038 23.7999 31.2858 23.6919 31.2318 23.5839C31.1778 23.4759 31.1238 23.3859 31.0518 23.3139C30.9798 23.2419 30.8898 23.1699 30.7818 23.1339C30.6738 23.0979 30.5658 23.0619 30.4578 23.0619C30.2238 23.0619 30.0258 23.1519 29.8638 23.3139C29.7018 23.4759 29.6118 23.6739 29.6118 23.9079C29.6118 24.1239 29.7018 24.3399 29.8638 24.5019C30.0258 24.6639 30.2238 24.7359 30.4578 24.7359C30.5658 24.7359 30.6738 24.7179 30.7818 24.6639C30.8898 24.6279 30.9618 24.5559 31.0518 24.4839C31.1418 24.4119 31.1958 24.3219 31.2318 24.2139C31.2678 24.1239 31.3038 24.0159 31.3038 23.9079Z" fill="black"/>
</svg>
