<svg width="44" height="44" viewBox="0 0 44 44" fill="none" xmlns="http://www.w3.org/2000/svg">
<path d="M12.3336 22.01H8.34264C8.05393 22.01 7.90107 22.3327 8.0709 22.5535L10.0579 25.0669C10.1258 25.1518 10.2277 25.2028 10.3296 25.2028C10.4315 25.2028 10.5334 25.1518 10.6014 25.0669L12.5884 22.5704C12.7752 22.3327 12.6053 22.01 12.3336 22.01Z" fill="black"/>
<path d="M21.8103 10.0031C15.0511 9.8503 9.51465 15.2848 9.51465 22.0101H11.2129C11.2129 16.3208 15.8323 11.7014 21.5216 11.7014C27.3637 11.7014 32.1019 16.5925 31.8132 22.5026C31.5585 27.7163 27.3977 31.9621 22.1839 32.2847C19.2459 32.4715 16.5626 31.4356 14.5756 29.6184C14.3718 29.4316 14.0661 29.4486 13.8793 29.6354L13.3868 30.1279C13.183 30.3317 13.183 30.6714 13.4037 30.8582C15.5436 32.8112 18.3797 34 21.5046 34C28.2298 34 33.6644 28.4636 33.5115 21.7044C33.3756 15.3528 28.1789 10.156 21.8103 10.0031Z" fill="black"/>
<path d="M24.7991 26.4935L20.91 22.6044C20.7572 22.4516 20.6553 22.2308 20.6553 22.01V14.028C20.6553 13.7393 20.8761 13.5186 21.1648 13.5186H21.8441C22.1328 13.5186 22.3536 13.7393 22.3536 14.028V21.4835C22.3536 21.6024 22.4045 21.7043 22.4724 21.7892L25.9879 25.3047C26.1917 25.5085 26.1917 25.8312 25.9879 26.018L25.5124 26.4935C25.3256 26.6973 25.0029 26.6973 24.7991 26.4935Z" fill="black"/>
</svg>
