<svg width="44" height="44" viewBox="0 0 44 44" fill="none" xmlns="http://www.w3.org/2000/svg">
<path d="M22 11.6973C27.686 11.6973 32.3027 16.314 32.3027 22C32.3027 27.686 27.686 32.3027 22 32.3027C16.314 32.3027 11.6973 27.686 11.6973 22C11.6973 16.314 16.314 11.6973 22 11.6973ZM22 10C15.3635 10 10 15.3805 10 22C10 28.6195 15.3805 34 22 34C28.6195 34 34 28.6195 34 22C34 15.3805 28.6365 10 22 10Z" fill="black"/>
<path d="M18.5713 17.6209C18.5713 17.3832 18.758 17.1965 18.9956 17.1965H23.0182C25.3096 17.1965 26.8542 18.4695 26.8542 20.5233C26.8542 22.8656 25.089 23.9349 22.9673 23.9349H21.3209C21.0833 23.9349 20.8966 24.1216 20.8966 24.3592V27.5162C20.8966 27.7538 20.7099 27.9405 20.4723 27.9405H18.9956C18.758 27.9405 18.5713 27.7538 18.5713 27.5162V17.6209V17.6209ZM20.8966 21.6605C20.8966 21.8981 21.0833 22.0848 21.3209 22.0848H22.6788C23.7481 22.0848 24.5289 21.6605 24.5289 20.5742C24.5289 19.4709 23.7141 19.0466 22.7297 19.0466H21.3209C21.0833 19.0466 20.8966 19.2333 20.8966 19.4709V21.6605V21.6605Z" fill="black"/>
</svg>
