<svg width="16" height="16" viewBox="0 0 16 16" fill="none" xmlns="http://www.w3.org/2000/svg">
<g clip-path="url(#clip0)">
<path d="M0 8.56579V7.43425C0 7.27584 0.12447 7.15137 0.282885 7.15137H15.7171C15.8755 7.15137 16 7.27584 16 7.43425V8.56579C16 8.72421 15.8755 8.84868 15.7171 8.84868H0.282885C0.12447 8.84868 0 8.72421 0 8.56579Z" fill="white"/>
<path d="M1.41443 4.52617H0.282885C0.12447 4.52617 0 4.4017 0 4.24328V1.9802C0 0.882602 0.882602 0 1.9802 0H4.24328C4.4017 0 4.52617 0.12447 4.52617 0.282885V1.41443C4.52617 1.57284 4.4017 1.69731 4.24328 1.69731H1.9802C1.82178 1.69731 1.69731 1.82178 1.69731 1.9802V4.24328C1.69731 4.4017 1.57284 4.52617 1.41443 4.52617Z" fill="white"/>
<path d="M15.7169 4.52617H14.5854C14.427 4.52617 14.3025 4.4017 14.3025 4.24328V1.9802C14.3025 1.82178 14.178 1.69731 14.0196 1.69731H11.7565C11.5981 1.69731 11.4736 1.57284 11.4736 1.41443V0.282885C11.4736 0.12447 11.5981 0 11.7565 0H14.0196C15.1172 0 15.9998 0.882602 15.9998 1.9802V4.24328C15.9998 4.4017 15.8753 4.52617 15.7169 4.52617Z" fill="white"/>
<path d="M14.0196 16.0001H11.7565C11.5981 16.0001 11.4736 15.8756 11.4736 15.7172V14.5856C11.4736 14.4272 11.5981 14.3027 11.7565 14.3027H14.0196C14.178 14.3027 14.3025 14.1783 14.3025 14.0199V11.7568C14.3025 11.5983 14.427 11.4739 14.5854 11.4739H15.7169C15.8753 11.4739 15.9998 11.5983 15.9998 11.7568V14.0199C15.9998 15.1174 15.1172 16.0001 14.0196 16.0001Z" fill="white"/>
<path d="M4.24328 16.0001H1.9802C0.882602 16.0001 0 15.1174 0 14.0199V11.7568C0 11.5983 0.12447 11.4739 0.282885 11.4739H1.41443C1.57284 11.4739 1.69731 11.5983 1.69731 11.7568V14.0199C1.69731 14.1783 1.82178 14.3027 1.9802 14.3027H4.24328C4.4017 14.3027 4.52617 14.4272 4.52617 14.5856V15.7172C4.52617 15.8756 4.4017 16.0001 4.24328 16.0001Z" fill="white"/>
</g>
<defs>
<clipPath id="clip0">
<rect width="16" height="16" fill="white"/>
</clipPath>
</defs>
</svg>
