<svg width="83" height="24" viewBox="0 0 83 24" fill="none" xmlns="http://www.w3.org/2000/svg">
<path d="M9.69822 4.32657C10.668 4.32657 11.6379 4.63138 12.6077 5.21327L14.6582 1.14001C13.3004 0.419576 11.9981 0.0316467 10.7512 0.0316467C9.72593 0.0316467 8.83924 0.225611 8.09109 0.585831C7.34294 0.94605 6.48396 1.66649 5.48643 2.69173L4.46118 3.77239V0.696666H0V24.0001H4.46118V11.8912C4.46118 6.87583 6.23457 4.32657 9.69822 4.32657Z" fill="black"/>
<path d="M28.7053 9.47705H24.2441V23.9967H28.7053V9.47705Z" fill="black"/>
<path d="M28.6788 0.914404C28.0692 0.304802 27.3488 0 26.4898 0C25.6308 0 24.9381 0.304802 24.3285 0.914404C23.7189 1.52401 23.4141 2.21673 23.4141 3.04801C23.4141 3.9347 23.7189 4.65514 24.3285 5.26474C24.9381 5.87435 25.6585 6.17915 26.5175 6.17915C27.3765 6.17915 28.0969 5.87435 28.6788 5.26474C29.2884 4.65514 29.5932 3.9347 29.5932 3.07572C29.5655 2.21673 29.2884 1.52401 28.6788 0.914404Z" fill="black"/>
<path d="M51.1233 4.59936H46.7176V0.0273438H42.2564V4.59936H39.8457V8.70033H42.2564V23.9958H46.7176V8.70033H51.1233V4.59936Z" fill="black"/>
<path d="M82.7399 10.1145C81.7978 4.07384 76.3391 -0.442753 69.9383 0.0560131C64.0639 0.52707 59.3256 5.32076 58.9654 11.2228C58.5221 18.2055 64.0362 23.9968 70.9358 23.9968C73.679 23.9968 76.2282 23.0546 78.251 21.5029V23.9968H82.9062L82.8785 11.971C82.8507 11.3337 82.823 10.7241 82.7399 10.1145ZM70.9081 19.3139C66.8625 19.3139 63.5928 16.0442 63.5928 11.9987C63.5928 7.95314 66.8625 4.68345 70.9081 4.68345C74.9536 4.68345 78.2233 7.95314 78.2233 11.9987C78.2233 16.0442 74.9259 19.3139 70.9081 19.3139Z" fill="black"/>
</svg>
